<svg id="Layer_1" data-name="Layer 1" xmlns="http://www.w3.org/2000/svg" viewBox="0 0 461.59 461.59"><defs><style>.cls-1{fill:#c70039;stroke:#fff;stroke-miterlimit:10;}</style></defs><title>wine-bottle-solid</title><path class="cls-1" d="M482.08,84.24,421,23.17a14.4,14.4,0,0,0-20.36,0L380.3,43.53a14.38,14.38,0,0,0,0,20.36l-69,69a115.06,115.06,0,0,0-126.27,24.5L42.57,299.84a57.58,57.58,0,0,0,0,81.42L124,462.68a57.58,57.58,0,0,0,81.42,0L347.9,320.19a115.06,115.06,0,0,0,24.5-126.27l69-69a14.38,14.38,0,0,0,20.36,0l20.36-20.35a14.4,14.4,0,0,0,0-20.35ZM186.93,399.74,105.5,318.32,215.29,208.53,296.71,290Z" transform="translate(-25.21 -18.45)"/></svg>